<svg width="54" height="68" viewBox="0 0 54 68" fill="none" xmlns="http://www.w3.org/2000/svg">
<g filter="url(#filter0_d_20_185)">
<rect x="5.59027" y="2.09375" width="42.055" height="56.8125" rx="12" fill="#EB2C2B"/>
</g>
<path d="M26.6179 18.959C21.9003 18.959 18.0755 24.1259 18.0755 30.499C18.0755 36.8721 21.9003 42.0391 26.6179 42.0391C31.3355 42.0391 35.1603 36.8721 35.1603 30.499C35.1603 24.1259 31.3355 18.959 26.6179 18.959Z" fill="white" stroke="#EB2C2B" stroke-width="0.75" stroke-miterlimit="10"/>
<path d="M26.6178 18.959C24.2329 18.959 21.9905 24.1259 21.9905 30.499C21.9905 36.8721 24.2329 42.0391 26.6178 42.0391C29.0027 42.0391 31.2451 36.8721 31.2451 30.499C31.2451 24.1259 29.0027 18.959 26.6178 18.959Z" fill="white" stroke="#EB2C2B" stroke-width="0.75" stroke-miterlimit="10"/>
<path d="M20.9227 22.8057C22.4932 24.312 24.4703 25.2103 26.6178 25.2103C28.7653 25.2103 30.7424 24.312 32.3129 22.8057" fill="white"/>
<path d="M20.9227 22.8057C22.4932 24.312 24.4703 25.2103 26.6178 25.2103C28.7653 25.2103 30.7424 24.312 32.3129 22.8057" stroke="#EB2C2B" stroke-width="0.75" stroke-linecap="round" stroke-linejoin="round"/>
<path d="M32.3129 38.1942C30.7424 36.6879 28.7653 35.7897 26.6178 35.7897C24.4703 35.7897 22.4932 36.6879 20.9227 38.1942" stroke="#EB2C2B" stroke-width="0.75" stroke-linecap="round" stroke-linejoin="round"/>
<path d="M26.6178 18.959V42.0391" stroke="#EB2C2B" stroke-width="0.75" stroke-miterlimit="10"/>
<path d="M35.1603 30.4987H18.0755" stroke="#EB2C2B" stroke-width="0.75" stroke-miterlimit="10"/>
<defs>
<filter id="filter0_d_20_185" x="0.0902705" y="0.0937498" width="53.055" height="67.8125" filterUnits="userSpaceOnUse" color-interpolation-filters="sRGB">
<feFlood flood-opacity="0" result="BackgroundImageFix"/>
<feColorMatrix in="SourceAlpha" type="matrix" values="0 0 0 0 0 0 0 0 0 0 0 0 0 0 0 0 0 0 127 0" result="hardAlpha"/>
<feOffset dy="3.5"/>
<feGaussianBlur stdDeviation="2.75"/>
<feColorMatrix type="matrix" values="0 0 0 0 0 0 0 0 0 0 0 0 0 0 0 0 0 0 0.02 0"/>
<feBlend mode="normal" in2="BackgroundImageFix" result="effect1_dropShadow_20_185"/>
<feBlend mode="normal" in="SourceGraphic" in2="effect1_dropShadow_20_185" result="shape"/>
</filter>
</defs>
</svg>
