<svg width="690" height="278" viewBox="0 0 690 278" fill="none" xmlns="http://www.w3.org/2000/svg">
<path d="M594.446 189.152C630.137 174.696 671.955 195.175 688.403 207.221V277.673H0.890869V2.02594C35.431 10.295 57.6353 78.2851 63.1864 121.468C67.7139 156.688 67.9151 181.802 91.9698 189.152C116.153 196.541 144.826 173.027 169.086 141.176C188.494 115.695 217.469 130.559 229.531 141.176C250.913 159.654 286.134 172.185 314.424 153.319C349.787 129.737 369.318 136.475 413.933 153.319C458.547 170.164 454.024 180.883 491.237 207.221C528.45 233.56 549.832 207.221 594.446 189.152Z" fill="url(#paint0_linear_20_142)"/>
<path d="M688.403 207.221C671.955 195.175 630.137 174.696 594.446 189.152C549.832 207.221 528.45 233.56 491.237 207.221C454.024 180.883 458.547 170.164 413.933 153.319C369.318 136.475 349.787 129.737 314.424 153.319C286.134 172.185 250.913 159.654 229.531 141.176C217.469 130.559 188.494 115.695 169.086 141.176C144.826 173.027 116.153 196.541 91.9698 189.152C67.9151 181.802 67.7139 156.688 63.1864 121.468C57.6353 78.2851 35.431 10.295 0.890879 2.02594" stroke="#2CD9FF" stroke-width="3"/>
<path d="M94.1257 159.254C58.7087 144.809 17.212 165.273 0.890808 177.31V277.397H687.585V40.553C653.31 48.816 624.194 46.6732 618.686 89.8245C614.193 125.019 613.993 150.114 590.124 157.459C566.126 164.843 552.177 121.652 528.103 89.8245C508.844 64.3622 476.408 97.4953 464.44 108.105C443.222 126.569 394.988 86.2826 374.085 54.6147C344.238 9.39649 304.986 5.26068 275.342 54.6147C245.697 103.969 216.293 63.5053 179.366 89.8245C142.439 116.144 138.397 177.31 94.1257 159.254Z" fill="url(#paint1_linear_20_142)"/>
<path d="M0.890808 177.513C17.212 165.46 58.7087 144.97 94.1258 159.434C138.397 177.513 142.439 116.268 179.366 89.915C216.293 63.5621 245.697 104.077 275.342 54.6601C304.986 5.24292 344.238 9.38403 374.085 54.6601C394.988 86.3686 443.222 126.706 464.44 108.218C476.408 97.5956 508.844 64.4201 528.103 89.915C552.177 121.784 566.126 165.029 590.124 157.636C613.993 150.282 614.193 125.154 618.686 89.915C624.194 46.7085 653.31 48.854 687.585 40.5804" stroke="white" stroke-width="3"/>
<defs>
<linearGradient id="paint0_linear_20_142" x1="344.647" y1="2.02594" x2="344.647" y2="277.673" gradientUnits="userSpaceOnUse">
<stop stop-color="#AF2CFF" stop-opacity="0.36"/>
<stop offset="1" stop-color="#702CFF" stop-opacity="0"/>
</linearGradient>
<linearGradient id="paint1_linear_20_142" x1="344.238" y1="19.1332" x2="344.238" y2="277.397" gradientUnits="userSpaceOnUse">
<stop stop-color="#BA57F8" stop-opacity="0.44"/>
<stop offset="1" stop-color="#6C27C4" stop-opacity="0"/>
</linearGradient>
</defs>
</svg>
