<svg width="102" height="1080" viewBox="0 0 102 1080" fill="none" xmlns="http://www.w3.org/2000/svg">
<rect x="1" width="100" height="1080" fill="#F50C3A"/>
<g filter="url(#filter0_i_5_496)">
<path d="M1.00012 123C1.00005 116.373 6.37266 111 13.0001 111H101V164H13.0003C6.37285 164 1.00027 158.627 1.00027 152V137L1.00012 123Z" fill="#F47C07"/>
</g>
<g filter="url(#filter1_i_5_496)">
<path d="M2.00012 201C2.00005 194.373 7.37266 189 14.0001 189H102V242H14.0003C7.37285 242 2.00027 236.627 2.00027 230V215L2.00012 201Z" fill="#F47C07"/>
</g>
<g filter="url(#filter2_i_5_496)">
<path d="M0.000122329 274C5.47688e-05 267.373 5.37266 262 12.0001 262H100V315H12.0003C5.37285 315 0.000265044 309.627 0.000265044 303V288L0.000122329 274Z" fill="#F47C07"/>
</g>
<path d="M50.0072 126.958H41.5488V135.417H50.0072V126.958Z" stroke="white" stroke-width="2.41667" stroke-linecap="round" stroke-linejoin="round"/>
<path d="M63.2988 126.958H54.8405V135.417H63.2988V126.958Z" stroke="white" stroke-width="2.41667" stroke-linecap="round" stroke-linejoin="round"/>
<path d="M63.2988 140.25H54.8405V148.708H63.2988V140.25Z" stroke="white" stroke-width="2.41667" stroke-linecap="round" stroke-linejoin="round"/>
<path d="M50.0072 140.25H41.5488V148.708H50.0072V140.25Z" stroke="white" stroke-width="2.41667" stroke-linecap="round" stroke-linejoin="round"/>
<path d="M59.3333 303.75V301.333C59.3333 300.051 58.8241 298.822 57.9177 297.916C57.0113 297.009 55.7819 296.5 54.5 296.5H44.8333C43.5515 296.5 42.3221 297.009 41.4157 297.916C40.5092 298.822 40 300.051 40 301.333V303.75" fill="white"/>
<path d="M59.3333 303.75V301.333C59.3333 300.051 58.8241 298.822 57.9177 297.916C57.0113 297.009 55.7819 296.5 54.5 296.5H44.8333C43.5515 296.5 42.3221 297.009 41.4157 297.916C40.5092 298.822 40 300.051 40 301.333V303.75" stroke="#8C8C8C" stroke-width="2.41667" stroke-linecap="round" stroke-linejoin="round"/>
<path d="M49.6666 291.667C52.336 291.667 54.5 289.503 54.5 286.833C54.5 284.164 52.336 282 49.6666 282C46.9973 282 44.8333 284.164 44.8333 286.833C44.8333 289.503 46.9973 291.667 49.6666 291.667Z" fill="white" stroke="#8C8C8C" stroke-width="2.41667" stroke-linecap="round" stroke-linejoin="round"/>
<path d="M78.3333 232.75V230.333C78.3333 229.051 77.8241 227.822 76.9177 226.916C76.0113 226.009 74.7819 225.5 73.5 225.5H63.8333C62.5515 225.5 61.3221 226.009 60.4157 226.916C59.5092 227.822 59 229.051 59 230.333V232.75" fill="white"/>
<path d="M78.3333 232.75V230.333C78.3333 229.051 77.8241 227.822 76.9177 226.916C76.0113 226.009 74.7819 225.5 73.5 225.5H63.8333C62.5515 225.5 61.3221 226.009 60.4157 226.916C59.5092 227.822 59 229.051 59 230.333V232.75" stroke="#8C8C8C" stroke-width="2.41667" stroke-linecap="round" stroke-linejoin="round"/>
<path d="M68.6666 220.667C71.336 220.667 73.5 218.503 73.5 215.833C73.5 213.164 71.336 211 68.6666 211C65.9973 211 63.8333 213.164 63.8333 215.833C63.8333 218.503 65.9973 220.667 68.6666 220.667Z" fill="white" stroke="#8C8C8C" stroke-width="2.41667" stroke-linecap="round" stroke-linejoin="round"/>
<path d="M42.3333 232.75V230.333C42.3333 229.051 41.8241 227.822 40.9177 226.916C40.0113 226.009 38.7819 225.5 37.5 225.5H27.8333C26.5515 225.5 25.3221 226.009 24.4157 226.916C23.5092 227.822 23 229.051 23 230.333V232.75" fill="white"/>
<path d="M42.3333 232.75V230.333C42.3333 229.051 41.8241 227.822 40.9177 226.916C40.0113 226.009 38.7819 225.5 37.5 225.5H27.8333C26.5515 225.5 25.3221 226.009 24.4157 226.916C23.5092 227.822 23 229.051 23 230.333V232.75" stroke="#8C8C8C" stroke-width="2.41667" stroke-linecap="round" stroke-linejoin="round"/>
<path d="M32.6666 220.667C35.336 220.667 37.5 218.503 37.5 215.833C37.5 213.164 35.336 211 32.6666 211C29.9973 211 27.8333 213.164 27.8333 215.833C27.8333 218.503 29.9973 220.667 32.6666 220.667Z" fill="white" stroke="#8C8C8C" stroke-width="2.41667" stroke-linecap="round" stroke-linejoin="round"/>
<path d="M61.3333 227.75V225.333C61.3333 224.051 60.8241 222.822 59.9177 221.916C59.0113 221.009 57.7819 220.5 56.5 220.5H46.8333C45.5515 220.5 44.3221 221.009 43.4157 221.916C42.5092 222.822 42 224.051 42 225.333V227.75" fill="white"/>
<path d="M61.3333 227.75V225.333C61.3333 224.051 60.8241 222.822 59.9177 221.916C59.0113 221.009 57.7819 220.5 56.5 220.5H46.8333C45.5515 220.5 44.3221 221.009 43.4157 221.916C42.5092 222.822 42 224.051 42 225.333V227.75" stroke="#8C8C8C" stroke-width="2.41667" stroke-linecap="round" stroke-linejoin="round"/>
<path d="M51.6666 215.667C54.336 215.667 56.5 213.503 56.5 210.833C56.5 208.164 54.336 206 51.6666 206C48.9973 206 46.8333 208.164 46.8333 210.833C46.8333 213.503 48.9973 215.667 51.6666 215.667Z" fill="white" stroke="#8C8C8C" stroke-width="2.41667" stroke-linecap="round" stroke-linejoin="round"/>
<defs>
<filter id="filter0_i_5_496" x="-0.999878" y="111" width="102" height="57" filterUnits="userSpaceOnUse" color-interpolation-filters="sRGB">
<feFlood flood-opacity="0" result="BackgroundImageFix"/>
<feBlend mode="normal" in="SourceGraphic" in2="BackgroundImageFix" result="shape"/>
<feColorMatrix in="SourceAlpha" type="matrix" values="0 0 0 0 0 0 0 0 0 0 0 0 0 0 0 0 0 0 127 0" result="hardAlpha"/>
<feOffset dx="-2" dy="4"/>
<feGaussianBlur stdDeviation="2"/>
<feComposite in2="hardAlpha" operator="arithmetic" k2="-1" k3="1"/>
<feColorMatrix type="matrix" values="0 0 0 0 0 0 0 0 0 0 0 0 0 0 0 0 0 0 0.25 0"/>
<feBlend mode="normal" in2="shape" result="effect1_innerShadow_5_496"/>
</filter>
<filter id="filter1_i_5_496" x="0.00012207" y="189" width="102" height="57" filterUnits="userSpaceOnUse" color-interpolation-filters="sRGB">
<feFlood flood-opacity="0" result="BackgroundImageFix"/>
<feBlend mode="normal" in="SourceGraphic" in2="BackgroundImageFix" result="shape"/>
<feColorMatrix in="SourceAlpha" type="matrix" values="0 0 0 0 0 0 0 0 0 0 0 0 0 0 0 0 0 0 127 0" result="hardAlpha"/>
<feOffset dx="-2" dy="4"/>
<feGaussianBlur stdDeviation="2"/>
<feComposite in2="hardAlpha" operator="arithmetic" k2="-1" k3="1"/>
<feColorMatrix type="matrix" values="0 0 0 0 0 0 0 0 0 0 0 0 0 0 0 0 0 0 0.25 0"/>
<feBlend mode="normal" in2="shape" result="effect1_innerShadow_5_496"/>
</filter>
<filter id="filter2_i_5_496" x="-1.99988" y="262" width="102" height="57" filterUnits="userSpaceOnUse" color-interpolation-filters="sRGB">
<feFlood flood-opacity="0" result="BackgroundImageFix"/>
<feBlend mode="normal" in="SourceGraphic" in2="BackgroundImageFix" result="shape"/>
<feColorMatrix in="SourceAlpha" type="matrix" values="0 0 0 0 0 0 0 0 0 0 0 0 0 0 0 0 0 0 127 0" result="hardAlpha"/>
<feOffset dx="-2" dy="4"/>
<feGaussianBlur stdDeviation="2"/>
<feComposite in2="hardAlpha" operator="arithmetic" k2="-1" k3="1"/>
<feColorMatrix type="matrix" values="0 0 0 0 0 0 0 0 0 0 0 0 0 0 0 0 0 0 0.25 0"/>
<feBlend mode="normal" in2="shape" result="effect1_innerShadow_5_496"/>
</filter>
</defs>
</svg>
