<svg width="290" height="290" viewBox="0 0 290 290" fill="none" xmlns="http://www.w3.org/2000/svg">
<path d="M231.35 194.854C234.36 196.592 238.225 195.568 239.781 192.461C247.146 177.754 251 161.506 251 145C251 128.494 247.146 112.246 239.781 97.5387C238.225 94.4319 234.36 93.4083 231.35 95.1456C228.341 96.8829 227.331 100.722 228.862 103.841C235.137 116.626 238.418 130.703 238.418 145C238.418 159.297 235.137 173.374 228.862 186.158C227.331 189.278 228.341 193.117 231.35 194.854Z" fill="#22234B"/>
<path d="M237.241 107.14C240.455 105.82 242.008 102.135 240.501 99.0048C233.87 85.2368 224.328 73.0416 212.508 63.2776C199.069 52.1757 183.099 44.5596 166.013 41.1038C148.928 37.6481 131.253 38.4594 114.556 43.4659C97.8584 48.4724 82.6534 57.5196 70.2877 69.806C57.9219 82.0925 48.7772 97.239 43.6634 113.904C38.5496 130.569 37.6246 148.237 40.9704 165.345C44.3161 182.453 51.8294 198.471 62.8446 211.982C72.5324 223.864 84.666 233.484 98.391 240.203C101.512 241.731 105.207 240.201 106.547 236.996C107.887 233.79 106.362 230.124 103.254 228.571C91.4331 222.666 80.9766 214.309 72.5966 204.031C62.889 192.124 56.2676 178.007 53.3189 162.93C50.3703 147.853 51.1855 132.282 55.6923 117.595C60.1991 102.908 68.2583 89.5598 79.1562 78.7318C90.0541 67.9038 103.454 59.9306 118.17 55.5183C132.885 51.1061 148.461 50.3911 163.519 53.4366C178.577 56.4821 192.651 63.1942 204.495 72.9783C214.719 81.4242 223.009 91.9342 228.838 103.793C230.37 106.911 234.026 108.459 237.241 107.14Z" fill="url(#paint0_linear_17_43)"/>
<defs>
<linearGradient id="paint0_linear_17_43" x1="125.5" y1="51.5" x2="42.5004" y2="159.5" gradientUnits="userSpaceOnUse">
<stop stop-color="#F5EFD9"/>
<stop offset="1" stop-color="#F5EFD9"/>
</linearGradient>
</defs>
</svg>
